<?xml version="1.0" standalone="no"?>
<!DOCTYPE svg PUBLIC "-//W3C//DTD SVG 20010904//EN"
 "http://www.w3.org/TR/2001/REC-SVG-20010904/DTD/svg10.dtd">
<svg version="1.0" xmlns="http://www.w3.org/2000/svg"
 width="142.000000pt" height="85.000000pt" viewBox="0 0 142.000000 85.000000"
 preserveAspectRatio="xMidYMid meet">

<g transform="translate(0.000000,85.000000) scale(0.100000,-0.100000)"
fill="#000000" stroke="none">
<path d="M657 746 l-47 -84 90 -156 c114 -196 111 -188 70 -184 -30 3 -38 12
-107 133 -41 72 -78 134 -82 138 -5 5 -30 -29 -56 -75 l-47 -83 31 -57 32 -58
-34 0 c-26 0 -37 6 -47 26 -13 24 -15 25 -28 7 -7 -10 -22 -35 -33 -56 l-19
-37 131 0 131 0 -30 53 c-16 28 -39 68 -50 87 -19 33 -19 36 -3 62 l17 28 65
-113 65 -112 102 -3 101 -3 -116 201 c-104 181 -115 204 -105 226 7 13 15 24
20 24 4 0 66 -101 137 -225 128 -222 130 -225 163 -225 l33 0 -33 58 c-201
352 -294 511 -298 512 -3 0 -26 -38 -53 -84z"/>
<path d="M40 145 c0 -9 9 -15 25 -15 24 0 25 -3 25 -60 0 -47 3 -60 15 -60 12
0 15 13 15 60 0 57 1 60 25 60 16 0 25 6 25 15 0 12 -14 15 -65 15 -51 0 -65
-3 -65 -15z"/>
<path d="M202 144 c-17 -12 -22 -25 -22 -58 0 -51 14 -66 70 -73 33 -5 40 -3
40 11 0 11 -9 16 -29 16 -16 0 -34 7 -41 15 -11 13 -7 15 29 15 30 0 41 4 41
15 0 11 -11 15 -41 15 -36 0 -40 2 -29 15 7 8 25 15 41 15 19 0 29 5 29 15 0
20 -59 20 -88 -1z"/>
<path d="M347 153 c-19 -5 -37 -41 -37 -74 0 -33 44 -69 85 -69 24 0 35 4 35
15 0 10 -10 15 -27 15 -42 0 -55 13 -51 51 3 31 6 34 41 37 24 2 37 8 37 18 0
14 -42 18 -83 7z"/>
<path d="M452 88 c2 -57 6 -73 18 -73 9 0 16 11 18 28 3 21 9 27 28 27 20 0
24 -5 24 -30 0 -20 5 -30 15 -30 12 0 15 15 15 75 0 60 -3 75 -15 75 -10 0
-15 -10 -15 -30 0 -25 -4 -30 -25 -30 -21 0 -25 5 -25 30 0 24 -4 30 -20 30
-19 0 -21 -5 -18 -72z"/>
<path d="M590 156 c0 -2 13 -35 29 -73 37 -87 63 -96 80 -29 6 26 13 46 16 46
3 0 10 -20 16 -46 17 -67 42 -58 80 31 16 38 29 71 29 72 0 2 -8 3 -19 3 -13
0 -24 -14 -36 -46 -19 -50 -25 -50 -40 4 -15 51 -45 51 -60 0 -15 -53 -21 -54
-41 -4 -12 30 -25 46 -36 46 -10 0 -18 -2 -18 -4z"/>
<path d="M856 108 c-36 -82 -40 -98 -22 -98 8 0 20 9 26 20 14 26 56 26 70 0
6 -11 17 -20 25 -20 19 0 20 -3 -14 77 -37 87 -54 91 -85 21z m43 -27 c-15 -5
-22 6 -14 19 6 9 10 9 16 -1 5 -8 4 -15 -2 -18z"/>
<path d="M955 139 c4 -12 18 -45 31 -75 25 -58 49 -69 63 -32 5 13 18 47 30
76 20 49 20 52 2 52 -12 0 -22 -13 -31 -41 -8 -22 -17 -42 -22 -45 -4 -3 -17
15 -28 40 -11 27 -26 46 -35 46 -12 0 -15 -6 -10 -21z"/>
<path d="M1140 153 c-39 -14 -54 -80 -27 -117 18 -25 107 -35 107 -13 0 11
-11 17 -37 19 -52 4 -56 28 -4 28 30 0 41 4 41 15 0 11 -11 15 -41 15 -52 0
-48 24 4 28 48 4 52 32 5 31 -18 0 -40 -3 -48 -6z"/>
<path d="M1258 149 c-21 -12 -24 -49 -6 -67 7 -7 29 -12 51 -12 57 0 42 -24
-17 -28 -59 -4 -58 -26 2 -30 56 -4 82 11 82 48 0 30 -7 35 -68 42 -42 5 -28
23 21 26 33 2 47 7 47 18 0 17 -84 20 -112 3z"/>
</g>
</svg>
