<?xml version="1.0" encoding="iso-8859-1"?>
<!DOCTYPE svg PUBLIC "-//W3C//DTD SVG 20000303 Stylable//EN"
"http://www.w3.org/TR/2000/03/WD-SVG-20000303/DTD/svg-20000303-stylable.dtd">

<svg width="1.4792in" height="1.4792in" viewBox="0 0 999 999">

<path style="fill:#ccc;stroke:#000;stroke-width:2" d="M679,939 l-117,32 -126,0 -117,-32 -108,-62 -90,-90 -62,-108 -32,-117 0,-126 32,-117 62,-108 90,-90 108,-62 117,-32 126,0 117,32 108,62 90,90 62,108 32,117 0,126 -32,117 -62,108 -90,90 -108,62z" />
<path style="fill:#f2f2f2;stroke:#b2b2b2;stroke-width:2" d="M360,896 l-113,-48 -83,-79 -57,-97 -30,-114 0,-115 30,-110 57,-97 83,-83 97,-55 110,-32 115,0 111,32 83,57 93,99 -222,-97 -426,569 152,170z" />
<path style="fill:#4c4c4c;stroke:#333;stroke-width:2" d="M680,939 l-118,32 -124,0 -283,-305 465,-543 319,195 32,118 0,124 -32,120 -62,108 -89,89 -108,62z" />
<path style="fill:#555;stroke:#000;stroke-width:2" d="M638,843 l-90,25 -100,0 -90,-25 -85,-48 -70,-70 -48,-85 -25,-90 0,-100 25,-90 48,-85 70,-71 85,-47 90,-25 100,0 90,25 85,47 71,71 47,85 25,90 0,100 -25,90 -47,85 -71,70 -85,48z" />
<path style="fill:#7f7f7f;stroke:#000;stroke-width:2" d="M560,763 l-94,25 -95,0 -94,-25 -83,-49 -69,-67 -50,-85 -24,-94 0,-95 24,-94 50,-85 67,-67 85,-50 94,-25 95,0 94,25 85,50 67,67 50,85 25,94 0,95 -25,94 -50,85 -67,67 -85,49z" />
<path style="fill:none;stroke:#dc0000;stroke-width:2" d="M475,701 l-111,0 -105,-42 -79,-80 -43,-102 0,-111 43,-105 79,-80 103,-42 111,0 105,42 79,80 43,103 0,113 -43,102 -79,80 -103,42" />
<path style="fill:none;stroke:#dc0000;stroke-width:2" d="M466,657 l-93,0 -89,-35 -67,-67 -36,-87 0,-94 36,-88 67,-67 87,-36 93,0 89,36 67,67 36,87 0,95 -36,87 -67,67 -87,35" />

</svg>
